HIERARCHY
ROOT Hips
{
	OFFSET -0.001795 -0.223333 0.028219
	CHANNELS 6 Xposition Yposition Zposition Zrotation Yrotation Xrotation 
	JOINT LeftUpLeg
	{
		OFFSET 0.069520 -0.091406 -0.006815
		CHANNELS 3 Zrotation Yrotation Xrotation
		JOINT LeftLeg
		{
			OFFSET 0.034277 -0.375199 -0.004496
			CHANNELS 3 Zrotation Yrotation Xrotation
			JOINT LeftFoot
			{
				OFFSET -0.013596 -0.397961 -0.043693
				CHANNELS 3 Zrotation Yrotation Xrotation
				JOINT LeftToe
				{
					OFFSET 0.026358 -0.055791 0.119288
					CHANNELS 3 Zrotation Yrotation Xrotation
					End Site
					{
						OFFSET 0.000000 0.000000 0.000000
					}
				}
			}
		}
	}
	JOINT RightUpLeg
	{
		OFFSET -0.067670 -0.090522 -0.004320
		CHANNELS 3 Zrotation Yrotation Xrotation
		JOINT RightLeg
		{
			OFFSET -0.038290 -0.382569 -0.008850
			CHANNELS 3 Zrotation Yrotation Xrotation
			JOINT RightFoot
			{
				OFFSET 0.015774 -0.398415 -0.042312
				CHANNELS 3 Zrotation Yrotation Xrotation
				JOINT RightToe
				{
					OFFSET -0.025372 -0.048144 0.123348
					CHANNELS 3 Zrotation Yrotation Xrotation
					End Site
					{
						OFFSET 0.000000 0.000000 0.000000
					}
				}
			}
		}
	}
	JOINT Spine
	{
		OFFSET -0.002533 0.108963 -0.026696
		CHANNELS 3 Zrotation Yrotation Xrotation
		JOINT Spine1
		{
			OFFSET 0.005487 0.135180 0.001092
			CHANNELS 3 Zrotation Yrotation Xrotation
			JOINT Spine2
			{
				OFFSET 0.001457 0.052922 0.025425
				CHANNELS 3 Zrotation Yrotation Xrotation
				JOINT Neck
				{
					OFFSET -0.002778 0.213870 -0.042857
					CHANNELS 3 Zrotation Yrotation Xrotation
					JOINT Head
					{
						OFFSET 0.005152 0.064970 0.051349
						CHANNELS 3 Zrotation Yrotation Xrotation
						End Site
						{
							OFFSET 0.000000 0.000000 0.000000
						}
					}
				}
				JOINT LeftShoulder
				{
					OFFSET 0.078845 0.121749 -0.034090
					CHANNELS 3 Zrotation Yrotation Xrotation
					JOINT LeftArm
					{
						OFFSET 0.090977 0.030469 -0.008868
						CHANNELS 3 Zrotation Yrotation Xrotation
						JOINT LeftForeArm
						{
							OFFSET 0.259612 -0.012772 -0.027456
							CHANNELS 3 Zrotation Yrotation Xrotation
							JOINT LeftHand
							{
								OFFSET 0.249234 0.008986 -0.001171
								CHANNELS 3 Zrotation Yrotation Xrotation
								End Site
								{
									OFFSET 0.000000 0.000000 0.000000
								}
							}
						}
					}
				}
				JOINT RightShoulder
				{
					OFFSET -0.081759 0.118833 -0.038615
					CHANNELS 3 Zrotation Yrotation Xrotation
					JOINT RightArm
					{
						OFFSET -0.096012 0.032551 -0.009143
						CHANNELS 3 Zrotation Yrotation Xrotation
						JOINT RightForeArm
						{
							OFFSET -0.253742 -0.013329 -0.021401
							CHANNELS 3 Zrotation Yrotation Xrotation
							JOINT RightHand
							{
								OFFSET -0.255298 0.007772 -0.005559
								CHANNELS 3 Zrotation Yrotation Xrotation
								End Site
								{
									OFFSET 0.000000 0.000000 0.000000
								}
							}
						}
					}
				}
			}
		}
	}
}
MOTION
Frames: 16
Frame Time: 0.050000
-2.105777 0.929049 1.948117 -5.667674 8.069072 0.537099 5.564339 -1.420423 -22.422798 -3.303763 -2.229797 51.371776 6.358244 10.938706 -8.420375 0.000000 0.000000 0.000000 -11.048251 0.037266 -6.345307 2.162908 -0.184995 12.199613 3.731431 6.320571 5.770440 0.000000 0.000000 0.000000 1.473995 -0.455934 7.332857 -2.602508 1.250909 -0.751846 4.541299 0.480579 6.843520 -9.797044 7.217493 -20.335912 0.000000 0.000000 0.000000 -32.066079 3.402231 -7.208849 -44.221175 -10.599442 -1.227688 -19.717623 -33.125495 6.911541 0.000000 0.000000 0.000000 24.572083 -3.267966 -2.968533 48.264837 0.811688 -4.949029 2.052844 15.646580 0.853472 0.000000 0.000000 0.000000 
-2.117801 0.931719 1.962094 -4.608535 13.889415 0.831317 4.167543 -2.074584 -24.092958 -8.977888 0.142490 42.775304 7.988289 15.038148 -5.877091 0.000000 0.000000 0.000000 -10.699502 -0.128034 -3.242838 1.990670 -0.265067 10.051553 2.094655 3.157425 5.533408 0.000000 0.000000 0.000000 0.985750 -0.505108 8.235021 -1.946496 0.880013 0.423729 2.585541 4.071617 4.754865 -7.575322 6.565355 -19.208645 0.000000 0.000000 0.000000 -30.183366 3.245278 -9.387516 -44.350948 -5.421138 -2.170530 -18.908510 -28.484301 5.141724 0.000000 0.000000 0.000000 25.953976 -4.439129 -1.597412 46.869431 4.375580 -4.049922 2.447798 16.041616 1.055696 0.000000 0.000000 0.000000 
-2.123630 0.930997 1.976702 -4.211345 19.855567 0.941631 4.444818 -2.476608 -25.408573 -11.436892 0.636857 34.427061 9.983186 19.221546 -4.424516 0.000000 0.000000 0.000000 -9.639463 -0.301046 0.004256 2.284287 -0.419451 8.247602 0.210665 -0.638664 5.165979 0.000000 0.000000 0.000000 0.629296 -0.478190 7.873913 -1.434565 0.604238 0.451014 2.106749 6.319759 4.857394 -7.445040 6.887025 -16.934800 0.000000 0.000000 0.000000 -29.953130 3.510935 -11.509732 -43.649613 -0.477090 -3.341348 -16.466175 -24.821584 3.661759 0.000000 0.000000 0.000000 25.288918 -4.050997 0.446547 45.402919 7.093674 -3.546093 2.248797 16.103982 1.107231 0.000000 0.000000 0.000000 
-2.122631 0.926891 1.991006 -4.221058 25.734219 0.869286 6.102798 -2.621526 -26.089738 -11.603995 0.422431 26.439904 11.749258 22.404230 -3.108567 0.000000 0.000000 0.000000 -9.010886 -0.552629 2.692911 3.019633 -0.678409 7.241338 -1.284667 -3.760134 4.325378 0.000000 0.000000 0.000000 0.966942 -0.554064 8.131455 -1.061970 0.350124 0.810248 0.126983 8.448709 3.938996 -5.978699 6.314371 -14.976139 0.000000 0.000000 0.000000 -27.566380 3.853121 -12.753777 -43.316569 2.948200 -4.136814 -12.923647 -22.697884 2.371440 0.000000 0.000000 0.000000 25.776336 -4.092964 2.284612 43.540186 10.163416 -3.015285 2.725909 18.582362 1.486340 0.000000 0.000000 0.000000 
-2.113338 0.922318 2.004478 -4.461878 29.155505 0.436187 9.177634 -2.530979 -26.969196 -11.303068 0.283972 22.501578 13.207785 25.090839 -1.207373 0.000000 0.000000 0.000000 -8.014853 -0.795969 5.347718 2.485495 -0.618468 7.136909 -2.157872 -5.778817 4.618675 0.000000 0.000000 0.000000 1.003704 -0.625412 8.698122 -1.602904 0.747395 -0.787645 -0.074261 10.847973 5.269375 -5.147427 6.257455 -15.361668 0.000000 0.000000 0.000000 -26.596869 5.002402 -14.421257 -42.332531 5.675231 -4.870236 -11.072706 -21.955714 1.774979 0.000000 0.000000 0.000000 27.605390 -5.113328 3.537208 40.099032 14.902138 -2.412298 1.010698 21.820103 1.664748 0.000000 0.000000 0.000000 
-2.094524 0.917442 2.016928 -4.527339 34.381638 -0.521271 10.246887 -2.717381 -26.970346 -9.647826 -0.184714 19.612373 14.848974 27.595817 2.194209 0.000000 0.000000 0.000000 -8.032413 -1.296690 8.673386 2.425960 -0.708995 7.134610 -2.497212 -6.452165 5.433772 0.000000 0.000000 0.000000 0.087209 -0.629323 9.241976 -0.588498 0.365750 -1.437967 -0.731648 12.446994 6.789720 -2.121558 5.093196 -15.601680 0.000000 0.000000 0.000000 -25.340247 4.894739 -15.248647 -43.126803 7.506349 -5.633132 -7.741596 -21.938833 0.928770 0.000000 0.000000 0.000000 26.766695 -3.528654 6.039605 39.223150 17.308495 -2.011294 -1.651005 26.937024 1.738460 0.000000 0.000000 0.000000 
-2.061620 0.913019 2.027245 -4.607451 37.265256 -1.010175 11.357253 -2.741408 -26.595482 -8.888769 -0.443262 19.184220 17.033466 30.698091 7.112973 0.000000 0.000000 0.000000 -8.692643 -1.676017 10.709844 1.366431 -0.555446 8.191597 -3.108017 -7.591902 7.330546 0.000000 0.000000 0.000000 -0.569563 -0.604770 9.406651 -1.034383 0.661339 -2.300154 0.608352 14.741422 7.411323 -0.305261 4.437792 -15.610498 0.000000 0.000000 0.000000 -25.186998 5.620329 -16.674491 -42.061808 9.911195 -6.260432 -7.509570 -19.962428 0.735389 0.000000 0.000000 0.000000 26.168340 -4.557535 6.350744 38.250719 21.555906 -1.028947 -3.334212 29.975265 1.856958 0.000000 0.000000 0.000000 
-2.010964 0.910941 2.034474 -4.179260 43.947353 -0.560901 9.209278 -3.316512 -26.562648 -10.717331 -0.560972 18.575571 15.807971 29.019080 8.879129 0.000000 0.000000 0.000000 -9.102994 -2.396370 13.583314 0.105004 -0.517602 10.125023 -3.340914 -7.028995 11.632708 0.000000 0.000000 0.000000 -0.612756 -0.520693 8.251621 -0.150388 0.319881 -2.694667 0.877860 14.283199 8.540032 0.864242 4.071826 -15.444995 0.000000 0.000000 0.000000 -26.883721 4.551959 -18.528262 -41.355923 12.229348 -6.433103 -5.400970 -19.527108 0.299432 0.000000 0.000000 0.000000 24.071867 -5.390332 5.987576 39.077659 20.348151 -1.060178 -4.089049 34.471867 2.380160 0.000000 0.000000 0.000000 
-1.946500 0.913691 2.038672 -2.347741 51.558196 0.891381 2.473571 -3.460430 -23.330558 -9.358172 -1.044007 16.953102 12.110192 22.514375 5.583909 0.000000 0.000000 0.000000 -11.035629 -2.945503 13.750932 -1.173984 -1.551816 17.993698 -2.988089 -4.501349 21.196931 0.000000 0.000000 0.000000 -2.026564 -0.306355 6.478623 2.566937 -0.767165 -3.210757 -0.022718 14.136767 8.072651 1.394104 3.284991 -12.378122 0.000000 0.000000 0.000000 -24.735657 5.200216 -18.961900 -43.812626 14.132686 -7.959769 -8.789425 -18.605011 0.601893 0.000000 0.000000 0.000000 23.636321 -6.948088 6.088261 40.453889 17.903076 -1.892305 -3.265898 36.330487 3.228372 0.000000 0.000000 0.000000 
-1.879913 0.919691 2.040512 -0.985622 59.238564 1.290344 -3.518823 -2.412849 -16.954565 -6.924236 -1.311383 14.536306 9.971931 16.687640 3.074137 0.000000 0.000000 0.000000 -10.881808 -2.790990 9.068167 -8.039633 -4.105214 33.662182 1.472167 2.102124 29.257209 0.000000 0.000000 0.000000 -1.873945 -0.392943 7.180309 3.267369 -0.617163 -5.408955 -0.379629 12.285410 8.862127 1.025427 3.824002 -12.762154 0.000000 0.000000 0.000000 -24.505963 3.423422 -19.513417 -44.983074 14.226323 -8.011419 -13.268275 -19.143087 1.082878 0.000000 0.000000 0.000000 23.077932 -9.629257 4.873323 43.668303 14.792387 -2.565158 -1.221426 34.560666 3.776771 0.000000 0.000000 0.000000 
-1.820884 0.926806 2.043941 -1.427892 67.434910 -0.285747 -6.996408 -0.903636 -9.465883 -4.285215 -1.137596 10.704612 5.512883 8.129539 1.798312 0.000000 0.000000 0.000000 -8.495783 -2.101003 0.470073 -19.536836 -7.898647 51.409991 9.564735 11.460605 28.000058 0.000000 0.000000 0.000000 -0.763499 -0.676063 8.883769 4.565622 -1.226292 -5.056902 -1.971420 9.469568 7.715635 1.426550 3.594403 -12.543747 0.000000 0.000000 0.000000 -24.163406 0.512830 -18.628634 -46.847309 11.432819 -7.107569 -17.126235 -21.106543 1.670084 0.000000 0.000000 0.000000 20.709432 -11.449630 2.774458 50.022653 10.709172 -2.259001 -0.207165 30.867968 3.484084 0.000000 0.000000 0.000000 
-1.767431 0.932706 2.051386 -4.902293 75.688655 -5.067537 -7.345868 0.150142 -0.949011 -3.021869 -0.778951 5.653489 1.230500 1.189763 1.812353 0.000000 0.000000 0.000000 -4.118961 -1.612807 -9.681388 -33.053062 -9.382144 66.429740 15.939216 19.374842 24.714560 0.000000 0.000000 0.000000 0.085157 -0.967208 10.118406 5.764054 -1.605978 -5.608727 -2.977182 4.544699 7.963872 1.672291 3.887159 -13.590843 0.000000 0.000000 0.000000 -22.582140 -2.093249 -16.679380 -49.722168 7.052761 -6.114366 -20.557010 -24.307027 2.287984 0.000000 0.000000 0.000000 21.958047 -12.978138 2.289825 52.039238 9.666260 -2.763825 1.988187 23.792067 2.574745 0.000000 0.000000 0.000000 
-1.714961 0.935999 2.061660 -20.129567 81.228930 -20.584010 -5.796297 -0.071409 4.595377 -1.338769 -0.611683 3.634161 -1.247383 -4.197456 0.562002 0.000000 0.000000 0.000000 0.635548 -2.194935 -19.656447 -35.893269 -9.680187 67.678079 15.485157 21.750728 17.853068 0.000000 0.000000 0.000000 0.827227 -1.189647 10.759752 6.936417 -1.817817 -6.649462 -3.818638 0.197014 8.245524 2.201282 3.409448 -12.668623 0.000000 0.000000 0.000000 -21.230390 -3.699169 -15.106024 -52.286388 0.928940 -4.203052 -22.173402 -26.340658 2.594308 0.000000 0.000000 0.000000 21.000306 -12.874588 1.792674 54.418395 4.733253 -3.974561 4.793691 20.329584 2.278428 0.000000 0.000000 0.000000 
-1.661645 0.935505 2.072201 -47.252139 83.795698 -48.719709 -3.630378 -1.353052 10.585126 -0.804895 -0.485373 1.193672 -2.249970 -7.531025 -0.962046 0.000000 0.000000 0.000000 4.135693 -3.774216 -27.336975 -26.379333 -11.848880 59.217551 10.676034 17.572017 9.203930 0.000000 0.000000 0.000000 2.297127 -1.909842 12.937483 6.448569 -1.336097 -7.458623 -4.175390 -3.246578 8.024563 3.302909 2.643644 -12.017959 0.000000 0.000000 0.000000 -19.263944 -5.469853 -12.490394 -51.782690 -4.068631 -2.564973 -26.658695 -30.495433 4.040499 0.000000 0.000000 0.000000 20.884398 -14.005820 0.561270 56.178664 1.354654 -4.981851 6.699045 17.456768 2.067750 0.000000 0.000000 0.000000 
-1.606671 0.929189 2.081216 -65.864669 84.022874 -67.604580 -2.892010 -3.052198 15.958171 0.068860 -0.361527 -0.549373 -2.836754 -8.177175 -1.115768 0.000000 0.000000 0.000000 6.781991 -4.594365 -31.357350 -12.009745 -9.864715 40.767818 6.115428 10.135067 3.977563 0.000000 0.000000 0.000000 3.093574 -2.225250 13.537735 5.656614 -0.983674 -7.533570 -3.588690 -6.252891 8.741013 2.653233 3.405014 -13.037432 0.000000 0.000000 0.000000 -19.579634 -6.631888 -11.844317 -50.905747 -8.494730 -0.408454 -27.100625 -34.546625 4.768089 0.000000 0.000000 0.000000 19.452456 -14.447499 -0.522660 58.266560 -2.629522 -6.213133 6.602505 17.798614 2.190712 0.000000 0.000000 0.000000 
-1.547941 0.920332 2.087652 -70.974413 83.409767 -72.686092 -4.077554 -3.995164 19.400577 1.373719 -0.258849 0.487919 -1.988563 -6.098368 -0.749382 0.000000 0.000000 0.000000 8.820606 -4.202710 -32.163086 -0.637819 -5.600179 21.371946 0.786558 3.096868 12.263177 0.000000 0.000000 0.000000 4.436881 -2.455196 13.517332 5.286236 -0.897294 -7.291041 -3.616938 -8.362499 7.904195 2.063148 3.409650 -12.217289 0.000000 0.000000 0.000000 -19.069501 -7.329223 -10.464657 -50.928392 -11.273569 0.526567 -27.580167 -37.275589 5.416270 0.000000 0.000000 0.000000 19.178003 -14.499777 -1.192898 59.140473 -3.494212 -6.374774 3.867730 16.242303 1.546284 0.000000 0.000000 0.000000 
